HIERARCHY
ROOT Hips
{
    OFFSET   0.000000   0.000000   0.000000
    CHANNELS 6 Xposition Yposition Zposition Zrotation Xrotation Yrotation
    JOINT Chest
    {
        OFFSET   0.000000   8.007230   0.000000
        CHANNELS 3 Zrotation Xrotation Yrotation
        JOINT Chest2
        {
            OFFSET   0.000000  22.077100   0.000000
            CHANNELS 3 Zrotation Xrotation Yrotation
            JOINT Neck
            {
                OFFSET   0.000000  23.254800  -0.000021
                CHANNELS 3 Zrotation Xrotation Yrotation
                JOINT Head
                {
                    OFFSET   0.000000  14.370000   1.956610
                    CHANNELS 3 Zrotation Xrotation Yrotation
                    End Site
                    {
                        OFFSET   0.000000  19.566000   0.000000
                    }
                }
            }
            JOINT LeftCollar
            {
                OFFSET   3.911900  19.017000  -0.467063
                CHANNELS 3 Zrotation Xrotation Yrotation
                JOINT LeftShoulder
                {
                    OFFSET  10.383700   0.000000   0.000000
                    CHANNELS 3 Zrotation Xrotation Yrotation
                    JOINT LeftElbow
                    {
                        OFFSET  26.662100   0.001529   0.000325
                        CHANNELS 3 Zrotation Xrotation Yrotation
                        JOINT LeftWrist
                        {
                            OFFSET  28.869000  -0.000011  -0.000096
                            CHANNELS 3 Zrotation Xrotation Yrotation
                            JOINT LeftFinger0
                            {
                                OFFSET   2.044650  -2.323460   3.252850
                                CHANNELS 3 Zrotation Xrotation Yrotation
                                JOINT LeftFinger01
                                {
                                    OFFSET   3.088130   0.000000   0.000000
                                    CHANNELS 3 Zrotation Xrotation Yrotation
                                    JOINT LeftFinger02
                                    {
                                        OFFSET   2.639460   0.000000   0.000000
                                        CHANNELS 3 Zrotation Xrotation Yrotation
                                        End Site
                                        {
                                            OFFSET   2.582190   0.000000   0.000000
                                        }
                                    }
                                }
                            }
                            JOINT LeftFinger1
                            {
                                OFFSET   8.364480   0.000000   3.252850
                                CHANNELS 3 Zrotation Xrotation Yrotation
                                JOINT LeftFinger11
                                {
                                    OFFSET   4.646930   0.000000   0.000000
                                    CHANNELS 3 Zrotation Xrotation Yrotation
                                    JOINT LeftFinger12
                                    {
                                        OFFSET   2.323460   0.000000   0.000000
                                        CHANNELS 3 Zrotation Xrotation Yrotation
                                        End Site
                                        {
                                            OFFSET   2.273050   0.000000   0.000000
                                        }
                                    }
                                }
                            }
                            JOINT LeftFinger2
                            {
                                OFFSET   8.364480   0.000016   1.078090
                                CHANNELS 3 Zrotation Xrotation Yrotation
                                JOINT LeftFinger21
                                {
                                    OFFSET   5.111620   0.000000   0.000000
                                    CHANNELS 3 Zrotation Xrotation Yrotation
                                    JOINT LeftFinger22
                                    {
                                        OFFSET   2.788160   0.000017   0.000000
                                        CHANNELS 3 Zrotation Xrotation Yrotation
                                        End Site
                                        {
                                            OFFSET   2.727660   0.000000   0.000000
                                        }
                                    }
                                }
                            }
                            JOINT LeftFinger3
                            {
                                OFFSET   7.899780   0.000015  -1.078090
                                CHANNELS 3 Zrotation Xrotation Yrotation
                                JOINT LeftFinger31
                                {
                                    OFFSET   4.646920   0.000000   0.000000
                                    CHANNELS 3 Zrotation Xrotation Yrotation
                                    JOINT LeftFinger32
                                    {
                                        OFFSET   2.323470   0.000000   0.000000
                                        CHANNELS 3 Zrotation Xrotation Yrotation
                                        End Site
                                        {
                                            OFFSET   2.273050   0.000000   0.000000
                                        }
                                    }
                                }
                            }
                            JOINT LeftFinger4
                            {
                                OFFSET   7.435090   0.000000  -3.252850
                                CHANNELS 3 Zrotation Xrotation Yrotation
                                JOINT LeftFinger41
                                {
                                    OFFSET   3.717550   0.000000   0.000000
                                    CHANNELS 3 Zrotation Xrotation Yrotation
                                    JOINT LeftFinger42
                                    {
                                        OFFSET   1.858760   0.000000   0.000000
                                        CHANNELS 3 Zrotation Xrotation Yrotation
                                        End Site
                                        {
                                            OFFSET   1.818440   0.000000   0.000000
                                        }
                                    }
                                }
                            }
                        }
                    }
                }
            }
            JOINT RightCollar
            {
                OFFSET  -3.911900  19.017000  -0.467062
                CHANNELS 3 Zrotation Xrotation Yrotation
                JOINT RightShoulder
                {
                    OFFSET -10.383700   0.000015   0.000000
                    CHANNELS 3 Zrotation Xrotation Yrotation
                    JOINT RightElbow
                    {
                        OFFSET -26.662100   0.001341   0.000385
                        CHANNELS 3 Zrotation Xrotation Yrotation
                        JOINT RightWrist
                        {
                            OFFSET -28.869000   0.000025  -0.000080
                            CHANNELS 3 Zrotation Xrotation Yrotation
                            JOINT RightFinger0
                            {
                                OFFSET  -2.044650  -2.323490   3.252850
                                CHANNELS 3 Zrotation Xrotation Yrotation
                                JOINT RightFinger01
                                {
                                    OFFSET  -3.088130   0.000000   0.000000
                                    CHANNELS 3 Zrotation Xrotation Yrotation
                                    JOINT RightFinger02
                                    {
                                        OFFSET  -2.639460   0.000000   0.000000
                                        CHANNELS 3 Zrotation Xrotation Yrotation
                                        End Site
                                        {
                                            OFFSET  -2.582190   0.000000   0.000000
                                        }
                                    }
                                }
                            }
                            JOINT RightFinger1
                            {
                                OFFSET  -8.364480   0.000000   3.252850
                                CHANNELS 3 Zrotation Xrotation Yrotation
                                JOINT RightFinger11
                                {
                                    OFFSET  -4.646930   0.000000   0.000000
                                    CHANNELS 3 Zrotation Xrotation Yrotation
                                    JOINT RightFinger12
                                    {
                                        OFFSET  -2.323470   0.000000   0.000000
                                        CHANNELS 3 Zrotation Xrotation Yrotation
                                        End Site
                                        {
                                            OFFSET  -2.273050   0.000000   0.000000
                                        }
                                    }
                                }
                            }
                            JOINT RightFinger2
                            {
                                OFFSET  -8.364480   0.000000   1.078090
                                CHANNELS 3 Zrotation Xrotation Yrotation
                                JOINT RightFinger21
                                {
                                    OFFSET  -5.111610   0.000000   0.000000
                                    CHANNELS 3 Zrotation Xrotation Yrotation
                                    JOINT RightFinger22
                                    {
                                        OFFSET  -2.788160   0.000000   0.000000
                                        CHANNELS 3 Zrotation Xrotation Yrotation
                                        End Site
                                        {
                                            OFFSET  -2.727660   0.000000   0.000000
                                        }
                                    }
                                }
                            }
                            JOINT RightFinger3
                            {
                                OFFSET  -7.899780   0.000000  -1.078090
                                CHANNELS 3 Zrotation Xrotation Yrotation
                                JOINT RightFinger31
                                {
                                    OFFSET  -4.646920   0.000000   0.000000
                                    CHANNELS 3 Zrotation Xrotation Yrotation
                                    JOINT RightFinger32
                                    {
                                        OFFSET  -2.323470   0.000000   0.000000
                                        CHANNELS 3 Zrotation Xrotation Yrotation
                                        End Site
                                        {
                                            OFFSET  -2.273050   0.000000   0.000000
                                        }
                                    }
                                }
                            }
                            JOINT RightFinger4
                            {
                                OFFSET  -7.435090   0.000000  -3.252850
                                CHANNELS 3 Zrotation Xrotation Yrotation
                                JOINT RightFinger41
                                {
                                    OFFSET  -3.717550   0.000000   0.000000
                                    CHANNELS 3 Zrotation Xrotation Yrotation
                                    JOINT RightFinger42
                                    {
                                        OFFSET  -1.858770   0.000000   0.000000
                                        CHANNELS 3 Zrotation Xrotation Yrotation
                                        End Site
                                        {
                                            OFFSET  -1.818440   0.000000   0.000000
                                        }
                                    }
                                }
                            }
                        }
                    }
                }
            }
        }
    }
    JOINT LeftHip
    {
        OFFSET   9.783010   0.000000   0.000000
        CHANNELS 3 Zrotation Xrotation Yrotation
        JOINT LeftKnee
        {
            OFFSET   0.000070 -41.789100   0.000028
            CHANNELS 3 Zrotation Xrotation Yrotation
            JOINT LeftAnkle
            {
                OFFSET   0.000087 -41.133200  -0.000100
                CHANNELS 3 Zrotation Xrotation Yrotation
                JOINT LeftToe
                {
                    OFFSET   0.000000  -6.358960  14.674500
                    CHANNELS 3 Zrotation Xrotation Yrotation
                    End Site
                    {
                        OFFSET   0.000000   0.000000   3.913200
                    }
                }
            }
        }
    }
    JOINT RightHip
    {
        OFFSET  -9.783020   0.000000   0.000000
        CHANNELS 3 Zrotation Xrotation Yrotation
        JOINT RightKnee
        {
            OFFSET   0.000044 -41.789100  -0.000870
            CHANNELS 3 Zrotation Xrotation Yrotation
            JOINT RightAnkle
            {
                OFFSET  -0.000090 -41.133200  -0.000245
                CHANNELS 3 Zrotation Xrotation Yrotation
                JOINT RightToe
                {
                    OFFSET   0.000000  -6.358960  14.674500
                    CHANNELS 3 Zrotation Xrotation Yrotation
                    End Site
                    {
                        OFFSET   0.000000   0.000000   3.913200
                    }
                }
            }
        }
    }
}
MOTION
Frames: 4
Frame Time:   0.016667
  0.292767  90.024600   1.075710  -1.397270  -2.076650  -0.802952  -0.103554   1.187130  -0.740082  -0.191820   2.375480  -1.478490   1.519090   0.731752  -0.010119   2.490440   1.480870   4.968330  -1.737410  -0.459024   3.017130 -75.500800  16.300800   4.082510  -3.377820  -3.990570 -14.741900  14.397200   0.573461   8.898250  40.442300  27.212400 -66.363500 -15.215800  -0.007608  -0.001988  -2.607910  -0.003683  -0.003075 -25.643000   7.678130 -15.563600 -21.839900   0.003675  -0.002544 -15.287900  -0.006686   0.000549 -28.865900   3.469260  -6.263890 -43.582500   0.004745   0.007600 -29.031200  -0.001003   0.005470 -27.725700   3.343870  -6.331520 -31.472000   0.004520   0.002007 -20.945200   0.007318   0.002653 -32.238200   0.837608  -1.323470 -48.354800   0.000000   0.001855 -32.215700   0.000078   0.008605   9.648150   1.743670   3.884560  70.605600   9.952210  -3.425760   2.691230  -6.195900   9.720550 -16.328800 -16.375600   3.957170 -34.938200  28.662400  64.093500  33.468100   0.012643  -0.008263  11.734100   0.009043  -0.004802  21.302200   0.123943   0.318044  17.429600   0.005090  -0.003443  12.200700   0.005083  -0.003564  23.494500  -2.437110  -5.587010  23.613800  -0.000129   0.000121  15.726800  -0.005030   0.000083  26.138600  -2.692900  -5.468920  26.267600  -0.001404   0.001421  17.494200  -0.004115   0.001169  29.837400  -3.040660  -5.283710  44.967200  -0.006270   0.001513  29.948200   0.000095   0.001101   0.602535   1.622980   0.852785   0.855465   1.118540  13.255800  -4.310120  -2.826640   6.096000  -0.000000   0.000000   0.000000   2.998270  -0.302927  -6.150600  -1.251710   5.650900 -12.511900  -8.942880   0.267210  -2.188420   0.000000   0.000000  -0.000000
  0.299909  90.024300   1.091540  -1.396530  -2.112510  -0.769267  -0.103701   1.202330  -0.725545  -0.192294   2.405870  -1.449390   1.519080   0.728517  -0.010216   2.491070   1.474290   4.945070  -1.737660  -0.463155   3.004420 -75.507500  16.344200   4.065170  -3.382640  -4.025200 -14.757100  14.405300   0.547989   8.901270  40.462500  27.223100 -66.354600 -15.221000  -0.007623  -0.002002  -2.610520  -0.003687  -0.003089 -25.633500   7.678230 -15.563500 -21.832500   0.003680  -0.002532 -15.282800  -0.006690   0.000554 -28.868100   3.458980  -6.245530 -43.582100   0.004748   0.007601 -29.031100  -0.001002   0.005472 -27.728100   3.334080  -6.312900 -31.467400   0.004526   0.002017 -20.944800   0.007320   0.002659 -32.238200   0.837374  -1.323180 -48.363300   0.000000   0.001850 -32.215700   0.000087   0.008607   9.669360   1.675530   3.878010  70.672000   9.911010  -3.488590   2.656580  -6.257920   9.841450 -16.391800 -16.485100   3.918220 -34.864300  28.562700  63.931800  33.570600   0.012668  -0.008304  11.785300   0.009041  -0.004786  21.240000   0.097617   0.250381  17.378600   0.005041  -0.003414  12.165000   0.005097  -0.003515  23.514000  -2.449130  -5.607680  23.633800  -0.000076   0.000081  15.740100  -0.005027   0.000019  26.176000  -2.706650  -5.488620  26.312800  -0.001328   0.001191  17.524400  -0.004171   0.001009  29.849800  -3.053400  -5.303790  44.989000  -0.006285   0.001385  29.962700   0.000065   0.001035   0.595299   1.636930   0.865129   0.849758   1.161440  13.221100  -4.302850  -2.846370   6.084620   0.000000   0.000000   0.000000   2.989090  -0.244248  -6.181800  -1.246070   5.631220 -12.509400  -8.934760   0.263847  -2.198760   0.000000   0.000000   0.000000
  0.310073  90.024000   1.116820  -1.395420  -2.175430  -0.717874  -0.104192   1.234050  -0.696646  -0.193433   2.469280  -1.391530   1.519050   0.714936  -0.010339   2.492950   1.446750   4.899890  -1.739900  -0.476015   2.959390 -75.511000  16.406000   4.032560  -3.389450  -4.077510 -14.781100  14.420100   0.522510   8.909430  40.498500  27.244500 -66.349700 -15.247000  -0.007666  -0.002028  -2.623510  -0.003705  -0.003114 -25.624000   7.678360 -15.562600 -21.825100   0.003694  -0.002501 -15.277600  -0.006697   0.000569 -28.871300   3.443700  -6.218000 -43.581600   0.004756   0.007607 -29.031100  -0.001000   0.005478 -27.731600   3.319420  -6.285040 -31.461300   0.004542   0.002039 -20.944500   0.007326   0.002676 -32.238200   0.837140  -1.322890 -48.371900   0.000000   0.001837 -32.215700   0.000109   0.008614   9.709870   1.538850   3.860610  70.803300   9.869350  -3.594520   2.612720  -6.390240  10.092500 -16.567500 -16.675700   3.780570 -34.772200  28.423100  63.659700  33.724600   0.012727  -0.008384  11.862300   0.009038  -0.004753  21.114000   0.051287   0.131263  17.275400   0.004932  -0.003345  12.092800   0.005125  -0.003415  23.530900  -2.473000  -5.659340  23.653700   0.000000   0.000000  15.753400  -0.005012  -0.000077  26.240400  -2.738190  -5.536490  26.377100  -0.001200   0.000808  17.567200  -0.004295   0.000741  29.865000  -3.083320  -5.352230  45.014500  -0.006315   0.001173  29.979700   0.000000   0.000925   0.582259   1.673490   0.877483   0.842453   1.213100  13.168600  -4.290000  -2.876250   6.073290   0.000000   0.000000   0.000000   2.976980  -0.148014  -6.241710  -1.241080   5.611680 -12.500000  -8.926740   0.258053  -2.209090   0.000000   0.000000   0.000000
  0.314164  90.025700   1.134240  -1.392950  -2.230270  -0.680725  -0.105477   1.271120  -0.662609  -0.196245   2.543390  -1.323360   1.519960   0.688244  -0.010370   2.497440   1.392600   4.845690  -1.752250  -0.499583   2.874080 -75.499300  16.424300   3.998750  -3.389250  -4.102380 -14.797000  14.442800   0.522730   8.923840  40.533900  27.329100 -66.436800 -15.311000  -0.007740  -0.002051  -2.655470  -0.003744  -0.003135 -25.627200   7.678170 -15.561000 -21.826800   0.003714  -0.002450 -15.278800  -0.006705   0.000595 -28.873200   3.435590  -6.202560 -43.586000   0.004770   0.007618 -29.031100  -0.000998   0.005487 -27.733500   3.311310  -6.269600 -31.460200   0.004564   0.002069 -20.948100   0.007336   0.002707 -32.234000   0.837198  -1.324190 -48.365500   0.000000   0.001815 -32.211400   0.000141   0.008629   9.762980   1.369730   3.837010  70.943500   9.878540  -3.703830   2.609700  -6.565930  10.364600 -16.788200 -16.848400   3.502560 -34.769800  28.366500  63.376200  33.828100   0.012819  -0.008483  11.914000   0.009034  -0.004706  20.950100  -0.002398  -0.006894  17.141200   0.004780  -0.003244  11.998800   0.005164  -0.003284  23.461400  -2.508330  -5.762650  23.588200   0.000044  -0.000125  15.709800  -0.004941  -0.000140  26.279600  -2.795580  -5.629500  26.392000  -0.001071   0.000428  17.577100  -0.004469   0.000472  29.859200  -3.139280  -5.445640  45.016900  -0.006357   0.000967  29.981300  -0.000106   0.000815   0.568424   1.732830   0.874018   0.838795   1.220210  13.136200  -4.278170  -2.893540   6.075790   0.000000   0.000000  -0.000000   2.974280  -0.077266  -6.310950  -1.244720   5.612520 -12.475200  -8.929960   0.254071  -2.203880  -0.000000   0.000000   0.000000
